<?xml version="1.0" encoding="utf-8"?>
<!-- Generator: Adobe Illustrator 27.7.0, SVG Export Plug-In . SVG Version: 6.00 Build 0)  -->
<svg version="1.1" id="Layer_1" xmlns="http://www.w3.org/2000/svg" xmlns:xlink="http://www.w3.org/1999/xlink" x="0px" y="0px"
	 viewBox="0 0 1080 1080" style="enable-background:new 0 0 1080 1080;" xml:space="preserve">
<style type="text/css">
	.st0{fill:#D3D2D1;}
	.st1{fill:#FDFCFB;}
</style>
<path class="st0" d="M947.2,540c0,117.4-49.7,223.2-129.2,297.5c-72.8,68-170.5,109.7-278,109.7s-205.2-41.6-278-109.7
	C182.5,763.2,132.8,657.4,132.8,540c0-224.9,182.3-407.2,407.2-407.2S947.2,315.1,947.2,540z"/>
<circle class="st1" cx="540" cy="486.3" r="147"/>
<path class="st1" d="M818,837.5c-72.8,68-170.5,109.7-278,109.7s-205.2-41.6-278-109.7C305,726,413.3,646.9,540,646.9
	S775,726,818,837.5z"/>
</svg>
