<?xml version="1.0" encoding="utf-8"?>
<!-- Generator: Adobe Illustrator 27.7.0, SVG Export Plug-In . SVG Version: 6.00 Build 0)  -->
<svg version="1.1" id="Layer_1" xmlns="http://www.w3.org/2000/svg" xmlns:xlink="http://www.w3.org/1999/xlink" x="0px" y="0px"
	 viewBox="0 0 1080 1080" style="enable-background:new 0 0 1080 1080;" xml:space="preserve">
<style type="text/css">
	.st0{fill:#E41C1B;stroke:#72122B;stroke-miterlimit:10;}
	.st1{fill:#FFFFFF;}
	.st2{font-family:'MyriadPro-Regular';}
	.st3{font-size:413.2618px;}
</style>
<path class="st0" d="M564.9,563.5c-0.5,1-1.1,1.9-1.6,2.9c-0.5-1-1-2-1.5-2.9L564.9,563.5z"/>
<path class="st0" d="M760,159.3c-94.1,0-176.1,52.2-218.5,129.2C500.8,211.7,420,159.3,326.9,159.3C192.8,159.3,84.1,268,84.1,402.1
	c0,80.3,39,151.5,99,195.7l347.7,415.6l362.4-394.3c69.7-44.2,116-122,116-210.6C1009.2,270.9,897.7,159.3,760,159.3z M536.6,519
	l3.1,0c-0.5,1-1.1,1.9-1.6,2.9C537.6,521,537.1,520,536.6,519z"/>
<path class="st0" d="M564.9,563.5c-0.5,1-1.1,1.9-1.6,2.9c-0.5-1-1-2-1.5-2.9L564.9,563.5z"/>
<path class="st0" d="M564.9,563.5c-0.5,1-1.1,1.9-1.6,2.9c-0.5-1-1-2-1.5-2.9L564.9,563.5z"/>
<text transform="matrix(1 0 0 1 149.2656 554.2145)" class="st1 st2 st3">vote</text>
</svg>
