<?xml version="1.0" encoding="UTF-8"?><svg id="Layer_1" xmlns="http://www.w3.org/2000/svg" viewBox="0 0 1080 1080"><defs><style>.cls-1{font-family:Arial-Black, 'Arial Black';font-size:203.77px;font-weight:800;}.cls-1,.cls-2{fill:#fff;}.cls-3{fill:#fffffe;}.cls-4{fill:#d54342;}</style></defs><circle class="cls-4" cx="533.31" cy="545.61" r="468.37"/><path class="cls-3" d="m646.6,334.93c10.87-16.42,26.51-24.63,46.92-24.63,9.01,0,17.16,1.86,24.45,5.57,7.29,3.71,13.45,9.02,18.49,15.91,3.05,4.11,5.96,10.61,8.75,19.48l79.53-17.69c-10.21-30.75-25.82-53.55-46.82-68.39-21.01-14.84-49.87-22.27-86.59-22.27-46.92,0-83.21,12.95-108.85,38.84-21.97,22.18-34.53,52.56-37.68,91.12l90.24,1.2c1.54-16.95,5.39-30,11.56-39.13Z"/><path class="cls-3" d="m748.59,420.05c-3.98,18.43-10.37,32.48-19.19,42.15-8.82,9.68-21.84,14.51-39.07,14.51s-31.55-5.99-41.35-17.97c-9.81-11.98-14.71-34.12-14.71-66.43l-90.26.6c0,36.16,7.29,65.83,21.87,89.01,14.58,23.18,31.91,39.37,51.99,48.58,20.08,9.2,45.96,13.81,77.64,13.81,26.11,0,47.62-3.78,64.52-11.33,16.9-7.56,31.05-18.75,42.45-33.6,11.4-14.84,19.75-33.33,25.05-55.47l-78.93-23.86Z"/><text class="cls-1" transform="translate(258.56 747.21)"><tspan x="0" y="0">news</tspan></text><circle class="cls-3" cx="693.55" cy="393.21" r="34.49"/><path class="cls-2" d="m554.57,392.85c-11.98,0-12.22-19.9-.25-19.9.68,0,1.66,0,2.34,0v-126.89s-84.89,0-84.89,0v161.25l-109.75-161.25h-84.1v291.47h84.7v-160.04l109.15,160.04h84.9v-144.65c-.6-.03-1.41-.03-2.09-.03Z"/></svg>